<?xml version="1.0" standalone="no"?>
<!DOCTYPE svg PUBLIC "-//W3C//DTD SVG 20010904//EN"
 "http://www.w3.org/TR/2001/REC-SVG-20010904/DTD/svg10.dtd">
<svg version="1.0" xmlns="http://www.w3.org/2000/svg"
 width="2764.000000pt" height="2764.000000pt" viewBox="0 0 2764.000000 2764.000000"
 preserveAspectRatio="xMidYMid meet">
<metadata>
Created by potrace 1.11, written by Peter Selinger 2001-2013
</metadata>
<g transform="translate(0.000000,2764.000000) scale(0.100000,-0.100000)"
fill="#000000" stroke="none">
<path d="M9975 27605 c-230 -64 -518 -193 -954 -427 -135 -72 -1623 -928
-3306 -1901 -3201 -1852 -3210 -1857 -3635 -2087 -579 -313 -851 -498 -1076
-733 -129 -134 -213 -249 -279 -382 -61 -124 -84 -191 -117 -338 l-23 -102 0
-4930 c0 -4677 1 -4934 18 -5017 92 -454 379 -812 957 -1193 162 -107 366
-226 665 -388 555 -300 696 -380 1010 -567 443 -264 567 -329 733 -385 l64
-21 2 -1359 c2 -1151 5 -1397 19 -1600 23 -329 31 -383 69 -485 67 -175 169
-328 328 -493 258 -268 539 -456 1240 -832 232 -124 353 -193 925 -527 297
-173 626 -364 730 -423 296 -168 626 -360 1485 -865 2583 -1518 3874 -2239
4410 -2463 203 -85 223 -89 440 -82 342 11 514 36 701 101 178 62 285 121 863
473 415 254 4385 2547 5411 3126 883 498 1478 840 1708 981 852 523 1047 820
1098 1679 12 198 11 328 -8 2011 l-6 590 138 89 c281 179 497 302 1173 669
689 374 897 494 1172 676 283 188 447 316 626 490 274 267 417 502 490 810 18
72 19 295 22 4925 2 3397 0 4881 -8 4955 -51 502 -389 931 -1110 1407 -291
192 -544 338 -1320 758 -456 247 -541 296 -1365 785 -3099 1837 -4915 2849
-5510 3071 l-90 34 -200 -2 c-397 -3 -625 -42 -870 -149 -100 -44 -307 -164
-655 -381 -80 -49 -278 -168 -440 -263 -162 -95 -486 -286 -720 -426 -428
-254 -602 -349 -740 -400 -69 -26 -87 -28 -210 -28 -115 0 -144 3 -200 22
-115 41 -307 144 -655 352 -324 193 -971 564 -1545 885 -396 222 -619 324
-817 374 -71 18 -110 21 -300 20 -216 0 -219 0 -338 -34z m465 -735 c231 -56
477 -155 815 -329 253 -130 389 -208 983 -564 358 -215 551 -338 670 -426 92
-67 168 -126 170 -130 1 -4 -23 -15 -54 -25 -93 -29 -295 -136 -578 -306 -149
-89 -1148 -668 -2220 -1288 -1319 -761 -1974 -1145 -2023 -1184 -178 -144
-336 -378 -429 -636 -107 -296 -155 -588 -175 -1075 -13 -299 -9 -457 31
-1377 10 -239 21 -529 24 -645 l6 -210 -128 -82 c-240 -154 -516 -311 -1254
-717 -409 -224 -624 -347 -843 -481 -695 -425 -1107 -790 -1277 -1130 -67
-134 -90 -225 -112 -440 -69 -676 -72 -2129 -11 -5547 3 -222 2 -318 -5 -318
-30 0 -877 468 -1295 715 -194 114 -273 159 -590 330 -438 236 -646 413 -760
643 -71 144 -65 -304 -65 5053 0 4360 2 4837 16 4893 55 216 283 464 659 716
218 146 508 311 1005 570 371 194 2419 1372 3390 1950 1061 632 1421 843 1938
1139 1002 572 1412 782 1797 920 43 16 214 5 315 -19z m6981 14 c186 -35 506
-162 904 -359 521 -258 1132 -608 2215 -1270 421 -257 798 -482 1155 -690 569
-331 3798 -2181 3935 -2254 353 -189 531 -339 623 -521 85 -170 77 342 77
-5084 0 -4337 -2 -4848 -15 -4901 -44 -166 -162 -329 -365 -499 -244 -205
-484 -352 -1220 -746 -191 -102 -438 -243 -675 -385 -212 -127 -432 -244 -529
-280 -38 -14 -70 -24 -71 -23 -2 2 -6 1358 -10 3013 -7 2915 -7 3013 -26 3107
-56 283 -198 529 -445 769 -276 270 -573 461 -1354 874 -353 186 -556 302
-851 486 -391 243 -516 308 -699 364 l-75 22 3 244 c2 134 12 447 22 694 11
248 25 578 31 735 14 342 7 834 -16 1050 -43 418 -134 744 -277 995 -78 138
-133 211 -248 326 -140 142 -219 194 -662 435 -267 146 -275 151 -2565 1454
-942 536 -1713 976 -1713 980 1 11 621 401 780 490 230 129 482 277 700 410
355 216 622 364 815 452 276 125 379 146 556 112z m-3436 -1956 c39 -11 120
-45 180 -77 124 -65 728 -420 1090 -641 132 -81 379 -224 549 -319 453 -253
507 -284 1771 -1014 638 -368 1201 -697 1250 -731 110 -74 268 -230 316 -311
117 -200 145 -386 134 -885 -4 -173 -10 -479 -14 -680 -9 -413 -10 -421 -87
-489 -24 -21 -87 -57 -141 -81 -54 -24 -190 -97 -303 -163 -113 -66 -209 -120
-215 -120 -5 0 -66 36 -135 79 -155 99 -325 197 -690 399 -157 87 -793 451
-1415 810 -1419 819 -1408 812 -1600 907 -399 196 -670 272 -970 271 -235 0
-389 -32 -650 -136 -261 -103 -474 -219 -1250 -682 -651 -388 -775 -460 -1280
-745 -236 -134 -551 -316 -700 -405 -400 -241 -497 -285 -619 -285 -76 0 -106
14 -266 119 -171 113 -306 175 -491 225 l-56 16 -9 362 c-13 521 -11 945 5
1053 41 283 116 459 251 595 61 62 215 153 2435 1444 2787 1622 2430 1417
2539 1461 140 56 237 62 371 23z m-100 -3803 c345 -52 595 -170 1305 -618 502
-317 619 -384 1560 -902 509 -279 930 -512 935 -517 15 -14 -113 -130 -224
-204 -54 -35 -185 -109 -292 -165 -306 -160 -1475 -752 -2402 -1215 l-848
-425 -213 104 c-704 343 -2388 1241 -3021 1610 -264 154 -512 314 -550 357
-16 18 -14 22 48 83 87 85 231 182 467 312 361 199 463 258 920 530 1145 683
1636 944 1960 1044 81 25 215 27 355 6z m-6225 -6312 c-2 -3211 -4 -3048 51
-3260 95 -365 376 -707 834 -1013 164 -109 338 -210 734 -427 372 -203 550
-304 871 -493 174 -103 503 -290 755 -430 83 -46 326 -182 540 -303 215 -121
516 -288 670 -370 383 -205 456 -248 574 -341 179 -140 277 -339 355 -716 35
-171 56 -304 136 -890 153 -1116 185 -1328 320 -2159 88 -538 146 -921 153
-1015 l12 -151 70 -52 c39 -29 75 -53 80 -53 16 0 737 4468 744 4607 l6 112
65 66 c90 91 191 160 515 355 433 259 863 505 2405 1375 1272 718 1657 942
1810 1055 306 227 484 488 566 825 63 261 58 20 61 3228 3 2092 6 2917 14
2917 14 0 298 -155 729 -398 419 -237 747 -418 980 -542 239 -127 457 -257
565 -338 207 -154 339 -313 399 -480 l31 -87 3 -4860 c2 -4348 1 -4867 -13
-4930 -57 -262 -323 -522 -845 -827 -80 -46 -284 -160 -455 -253 -400 -217
-227 -118 -3840 -2203 -1710 -987 -3162 -1820 -3225 -1852 -199 -99 -341 -138
-536 -147 -255 -11 -481 47 -809 207 -197 97 -393 211 -862 503 -224 139 -500
310 -613 379 -232 142 -5766 3332 -5990 3453 -347 187 -487 287 -594 429 -95
125 -130 216 -146 374 -8 75 -10 1539 -8 4907 l3 4800 21 65 c90 277 321 494
809 760 94 51 224 122 290 158 170 92 859 490 1121 648 299 179 570 317 637
323 4 1 7 -1330 7 -2956z m755 2772 c311 -117 1006 -502 2810 -1557 913 -534
1554 -905 1855 -1073 243 -136 623 -328 694 -350 56 -17 61 -17 115 0 75 23
394 178 627 305 412 225 1524 860 2533 1448 331 192 1168 670 1446 824 264
147 751 394 798 404 l27 6 0 -983 0 -984 -88 -49 c-388 -218 -704 -385 -1577
-836 -782 -403 -838 -433 -1830 -985 -1041 -579 -1299 -712 -1557 -801 -148
-51 -252 -67 -388 -61 -211 9 -341 67 -869 386 -553 335 -657 392 -1721 946
-1831 954 -2647 1421 -2894 1657 l-66 63 0 833 c0 535 3 832 10 832 5 0 39
-11 75 -25z m29 -4201 c298 -119 867 -438 2311 -1294 1619 -960 2894 -1669
3046 -1695 57 -10 125 15 349 126 360 177 705 368 1745 964 673 385 3392 1895
3413 1895 6 0 13 -178 17 -457 15 -889 -23 -1153 -207 -1426 -58 -87 -196
-220 -313 -304 -222 -157 -371 -243 -1145 -663 -256 -139 -854 -480 -1330
-758 -1380 -807 -1874 -1086 -2233 -1262 -246 -122 -256 -125 -340 -95 -202
70 -848 427 -2127 1175 -1112 650 -1183 691 -1720 985 -732 401 -871 482
-1063 618 -338 240 -460 447 -501 850 -23 228 -27 1377 -5 1377 6 0 53 -16
103 -36z"/>
</g>
</svg>
